<svg width="119" height="154" viewBox="0 0 119 154" fill="none" xmlns="http://www.w3.org/2000/svg">
<path d="M72.1744 86.8472C70.816 87.1514 69.493 87.715 68.2875 88.5024C65.1467 90.5037 63.3194 93.3604 64.2063 94.8826C65.0933 96.4047 68.3583 96.0154 71.4991 94.0141C72.7209 93.2545 73.8063 92.2837 74.6884 91.1618C75.0978 90.6197 75.1713 89.9442 74.8761 89.4393L73.7239 87.4619C73.4307 86.9554 72.8226 86.7145 72.1744 86.8472Z" fill="#D5D6DB"/>
<path d="M64.2873 59.8541C63.3024 60.0749 62.343 60.4837 61.4687 61.0547C59.1919 62.5055 57.8661 64.5769 58.5087 65.6797C59.1513 66.7825 61.5198 66.5 63.7964 65.0493C64.6823 64.4983 65.4692 63.794 66.109 62.9804C66.4055 62.5874 66.4586 62.0981 66.2446 61.732L65.4103 60.3002C65.1981 59.9331 64.7574 59.758 64.2873 59.8541Z" fill="#D5D6DB"/>
<path d="M51.4733 60.9845C51.254 60.9601 51.0202 61.0185 50.8174 61.148L45.4693 64.5562C45.0219 64.8404 44.8429 65.3878 45.0698 65.779C45.1217 65.8686 45.1927 65.9451 45.279 66.0041L58.4606 75.0891L76.2941 63.7244L51.4733 60.9845Z" fill="#029BC5"/>
<path d="M107.85 59.6999L59.3181 90.252L30.6054 101.677L15.9623 104.588L14.3513 101.851L95.2464 51.9044C97.6572 50.4095 100.343 49.4919 103.032 49.2448C104.209 49.1429 105.372 49.1821 106.493 49.3609C107.487 49.5116 108.43 49.8023 109.294 50.2244C110.258 50.7026 112.092 50.7578 112.687 51.7106C112.689 51.7091 114.091 56.0835 107.85 59.6999V59.6999Z" fill="#E1E6E9"/>
<path d="M59.9615 86.2095L38.9662 119.679C38.704 120.15 38.8597 120.676 39.3135 120.855C39.5921 120.965 39.933 120.922 40.2194 120.74L45.5634 117.35C46.5913 116.697 47.5014 115.869 48.2375 114.915L88.9539 67.0462L59.9615 86.2095Z" fill="#029BC5"/>
<path d="M6.9819 85.092C6.63167 84.9723 6.21489 85.0344 5.86306 85.2584L1.44557 88.0718C0.843651 88.4549 0.603801 89.1913 0.909662 89.717C0.967938 89.8169 1.04364 89.9049 1.13437 89.9773L13.5111 99.8897L26.5241 91.7616L6.9819 85.092Z" fill="#029BC5"/>
<path d="M17.6596 101.677L10.9981 111.006C10.9004 111.14 10.9234 111.308 11.0494 111.382C11.1402 111.435 11.2642 111.425 11.365 111.358L15.4932 108.742C15.5253 108.721 15.5543 108.696 15.5783 108.667L25.3119 96.832L17.6596 101.677Z" fill="#029BC5"/>
<path d="M105.697 49.7631C104.542 49.5777 103.345 49.5381 102.132 49.6447C100.951 51.2958 100.196 53.1505 99.9427 55.0239C99.9241 55.4003 100.228 55.6711 100.62 55.6289C100.743 55.6157 100.864 55.5728 100.973 55.504L108.581 50.6597C107.692 50.2211 106.72 49.9193 105.697 49.7631Z" fill="#029BC5"/>
<path d="M89.1174 58.6712L94.0844 55.5343L98.7111 63.4033L93.744 66.5403L89.1174 58.6712Z" fill="#D5D6DB"/>
</svg>
